<svg width="101" height="20" viewBox="0 0 101 20" fill="none" xmlns="http://www.w3.org/2000/svg">
<path d="M13.112 14.47H4.642L2.882 18.826H0.462L7.722 1.204H10.164L17.402 18.826H14.872L13.112 14.47ZM12.298 12.424L8.888 3.91L5.456 12.424H12.298ZM21.9015 6.242V8.024C22.2682 7.43733 22.7522 6.946 23.3535 6.55C23.9695 6.13933 24.7542 5.934 25.7075 5.934C26.6315 5.934 27.4382 6.16867 28.1275 6.638C28.8168 7.10733 29.3155 7.75267 29.6235 8.574C30.0048 7.76733 30.5842 7.12933 31.3615 6.66C32.1388 6.176 33.0482 5.934 34.0895 5.934C34.9842 5.934 35.7762 6.154 36.4655 6.594C37.1695 7.01933 37.7195 7.628 38.1155 8.42C38.5115 9.212 38.7095 10.1287 38.7095 11.17V18.826H36.4435V11.544C36.4435 10.4147 36.1868 9.52733 35.6735 8.882C35.1602 8.23667 34.4562 7.914 33.5615 7.914C32.9455 7.914 32.3882 8.09733 31.8895 8.464C31.3908 8.83067 31.0022 9.32933 30.7235 9.96C30.4448 10.5907 30.3055 11.2873 30.3055 12.05V18.826H28.0395V11.632C28.0395 10.4587 27.7828 9.54933 27.2695 8.904C26.7562 8.244 26.0522 7.914 25.1575 7.914C24.5415 7.914 23.9842 8.09733 23.4855 8.464C23.0015 8.83067 22.6128 9.32933 22.3195 9.96C22.0408 10.5907 21.9015 11.28 21.9015 12.028V18.826H19.6355V6.242H21.9015ZM47.5023 19.134C46.329 19.134 45.2656 18.848 44.3123 18.276C43.3736 17.704 42.633 16.912 42.0903 15.9C41.5476 14.888 41.2763 13.766 41.2763 12.534C41.2763 11.302 41.5476 10.18 42.0903 9.168C42.633 8.156 43.3736 7.364 44.3123 6.792C45.2656 6.22 46.329 5.934 47.5023 5.934C48.573 5.934 49.497 6.14667 50.2743 6.572C51.0516 6.99733 51.6163 7.51067 51.9683 8.112V6.242H54.2343V18.826H51.9683V16.956C51.6163 17.5573 51.0516 18.0707 50.2743 18.496C49.497 18.9213 48.573 19.134 47.5023 19.134ZM47.7003 17.132C48.5363 17.132 49.277 16.934 49.9223 16.538C50.5823 16.1273 51.0956 15.5773 51.4623 14.888C51.829 14.184 52.0123 13.3993 52.0123 12.534C52.0123 11.6687 51.829 10.8913 51.4623 10.202C51.0956 9.498 50.5823 8.948 49.9223 8.552C49.277 8.14133 48.5363 7.936 47.7003 7.936C46.879 7.936 46.1456 8.134 45.5003 8.53C44.8696 8.926 44.3783 9.476 44.0263 10.18C43.6743 10.884 43.4983 11.6687 43.4983 12.534C43.4983 13.3993 43.6743 14.184 44.0263 14.888C44.3783 15.592 44.8696 16.142 45.5003 16.538C46.1456 16.934 46.879 17.132 47.7003 17.132ZM60.0578 6.242V8.156C60.3804 7.584 60.9084 7.07067 61.6418 6.616C62.3898 6.16133 63.2844 5.934 64.3258 5.934C65.3084 5.934 66.1811 6.16133 66.9438 6.616C67.7211 7.07067 68.3224 7.716 68.7478 8.552C69.1731 9.37333 69.3858 10.3413 69.3858 11.456V18.826H67.1198V11.852C67.1198 10.5907 66.8264 9.62267 66.2398 8.948C65.6678 8.25867 64.8684 7.914 63.8418 7.914C63.1231 7.914 62.4778 8.11933 61.9058 8.53C61.3338 8.926 60.8791 9.46133 60.5418 10.136C60.2191 10.8107 60.0578 11.5367 60.0578 12.314V18.826H57.7918V6.242H60.0578ZM78.1605 19.134C76.9872 19.134 75.9238 18.848 74.9705 18.276C74.0318 17.704 73.2912 16.912 72.7485 15.9C72.2058 14.888 71.9345 13.766 71.9345 12.534C71.9345 11.302 72.2058 10.18 72.7485 9.168C73.2912 8.156 74.0318 7.364 74.9705 6.792C75.9238 6.22 76.9872 5.934 78.1605 5.934C79.2312 5.934 80.1552 6.14667 80.9325 6.572C81.7098 6.99733 82.2745 7.51067 82.6265 8.112V0.653999H84.8925V18.826H82.6265V16.956C82.2745 17.5573 81.7098 18.0707 80.9325 18.496C80.1552 18.9213 79.2312 19.134 78.1605 19.134ZM78.3585 17.132C79.1945 17.132 79.9352 16.934 80.5805 16.538C81.2405 16.1273 81.7538 15.5773 82.1205 14.888C82.4872 14.184 82.6705 13.3993 82.6705 12.534C82.6705 11.6687 82.4872 10.8913 82.1205 10.202C81.7538 9.498 81.2405 8.948 80.5805 8.552C79.9352 8.14133 79.1945 7.936 78.3585 7.936C77.5372 7.936 76.8038 8.134 76.1585 8.53C75.5278 8.926 75.0365 9.476 74.6845 10.18C74.3325 10.884 74.1565 11.6687 74.1565 12.534C74.1565 13.3993 74.3325 14.184 74.6845 14.888C75.0365 15.592 75.5278 16.142 76.1585 16.538C76.8038 16.934 77.5372 17.132 78.3585 17.132ZM94.016 19.134C92.8426 19.134 91.7793 18.848 90.826 18.276C89.8873 17.704 89.1466 16.912 88.604 15.9C88.0613 14.888 87.79 13.766 87.79 12.534C87.79 11.302 88.0613 10.18 88.604 9.168C89.1466 8.156 89.8873 7.364 90.826 6.792C91.7793 6.22 92.8426 5.934 94.016 5.934C95.0866 5.934 96.0106 6.14667 96.788 6.572C97.5653 6.99733 98.13 7.51067 98.482 8.112V6.242H100.748V18.826H98.482V16.956C98.13 17.5573 97.5653 18.0707 96.788 18.496C96.0106 18.9213 95.0866 19.134 94.016 19.134ZM94.214 17.132C95.05 17.132 95.7906 16.934 96.436 16.538C97.096 16.1273 97.6093 15.5773 97.976 14.888C98.3426 14.184 98.526 13.3993 98.526 12.534C98.526 11.6687 98.3426 10.8913 97.976 10.202C97.6093 9.498 97.096 8.948 96.436 8.552C95.7906 8.14133 95.05 7.936 94.214 7.936C93.3926 7.936 92.6593 8.134 92.014 8.53C91.3833 8.926 90.892 9.476 90.54 10.18C90.188 10.884 90.012 11.6687 90.012 12.534C90.012 13.3993 90.188 14.184 90.54 14.888C90.892 15.592 91.3833 16.142 92.014 16.538C92.6593 16.934 93.3926 17.132 94.214 17.132Z" fill="url(#paint0_linear_159:135)"/>
<defs>
<linearGradient id="paint0_linear_159:135" x1="1.10614e-07" y1="9.95653" x2="103" y2="9.95653" gradientUnits="userSpaceOnUse">
<stop stop-color="#2B6BDB"/>
<stop offset="0.4875" stop-color="#009843"/>
<stop offset="1" stop-color="#FD8F04"/>
</linearGradient>
</defs>
</svg>
