<svg width="24" height="24" viewBox="0 0 24 24" fill="none" xmlns="http://www.w3.org/2000/svg">
<path d="M22 12C22 6.47715 17.5228 2 12 2C6.47715 2 2 6.47715 2 12C2 17.5228 6.47715 22 12 22C17.5228 22 22 17.5228 22 12Z" fill="#F99E2B"/>
<path d="M16.5138 8.07667C15.6881 7.39666 14.6973 7.05667 13.6514 7L13.4862 7.17001C14.422 7.39666 15.2477 7.84998 16.0183 8.47332C15.0826 7.96333 14.0367 7.62334 12.9358 7.51C12.6055 7.45333 12.3303 7.45333 12 7.45333C11.6697 7.45333 11.3945 7.45333 11.0642 7.51C9.9633 7.62334 8.91742 7.96333 7.98165 8.47332C8.75227 7.84998 9.57799 7.39666 10.5138 7.17001L10.3486 7C9.30274 7.05667 8.31191 7.39666 7.48624 8.07667C6.55046 9.89002 6.05505 11.93 6 14.0266C6.82568 14.9333 7.98165 15.5 9.19267 15.5C9.19267 15.5 9.57799 15.0467 9.8532 14.65C9.13762 14.48 8.47706 14.0833 8.0367 13.46C8.42201 13.6866 8.80732 13.9133 9.19267 14.0833C9.68809 14.31 10.1835 14.4233 10.6789 14.5367C11.1193 14.5933 11.5596 14.65 12 14.65C12.4404 14.65 12.8807 14.5933 13.3211 14.5367C13.8165 14.4233 14.3119 14.31 14.8073 14.0833C15.1927 13.9133 15.578 13.6866 15.9633 13.46C15.5229 14.0833 14.8624 14.48 14.1468 14.65C14.422 15.0467 14.8073 15.5 14.8073 15.5C16.0184 15.5 17.1743 14.9333 18 14.0266C17.945 11.93 17.4495 9.89002 16.5138 8.07667ZM10.1835 13.0066C9.63304 13.0066 9.13763 12.4966 9.13763 11.8733C9.13763 11.25 9.63304 10.74 10.1835 10.74C10.734 10.74 11.2294 11.25 11.2294 11.8733C11.2294 12.4966 10.734 13.0066 10.1835 13.0066ZM13.8165 13.0066C13.266 13.0066 12.7706 12.4966 12.7706 11.8733C12.7706 11.25 13.266 10.74 13.8165 10.74C14.367 10.74 14.8624 11.25 14.8624 11.8733C14.8624 12.4966 14.367 13.0066 13.8165 13.0066Z" fill="white"/>
</svg>
