<svg width="24" height="24" viewBox="0 0 24 24" fill="none" xmlns="http://www.w3.org/2000/svg">
<path d="M14.7236 12.0782C14.7236 13.5317 13.5069 14.7107 12.0062 14.7107C10.5066 14.7107 9.28932 13.5311 9.28932 12.0782C9.28932 11.8172 9.32925 11.5658 9.40238 11.3278L8.72119 11.1799V15.0054C8.72119 15.1973 8.80332 15.2788 8.99457 15.2788H15.006C15.1973 15.2788 15.2794 15.1973 15.2794 15.0054V11.1799L14.6111 11.3278C14.6837 11.5663 14.7236 11.8172 14.7236 12.0782V12.0782Z" fill="#5187E7"/>
<path d="M12.0063 13.6853C12.9759 13.6853 13.7619 12.9234 13.7619 11.9837C13.7619 11.0439 12.9759 10.2821 12.0063 10.2821C11.0367 10.2821 10.2507 11.0439 10.2507 11.9837C10.2507 12.9234 11.0367 13.6853 12.0063 13.6853Z" fill="#5187E7"/>
<path d="M12 3C7.02975 3 3 7.02919 3 12C3 16.9708 7.02975 21 12 21C16.9703 21 21 16.9703 21 12C21 7.02975 16.9703 3 12 3ZM16.3723 15.2788C16.3746 15.423 16.3479 15.5661 16.2938 15.6997C16.2396 15.8334 16.1592 15.9548 16.0573 16.0567C15.9553 16.1587 15.8339 16.2391 15.7003 16.2932C15.5667 16.3473 15.4235 16.374 15.2794 16.3717H8.72119C8.57703 16.374 8.43389 16.3473 8.30026 16.2932C8.16663 16.2391 8.04523 16.1587 7.94329 16.0567C7.84134 15.9548 7.76092 15.8334 7.7068 15.6997C7.65268 15.5661 7.62597 15.423 7.62825 15.2788V8.72063C7.62825 8.10356 8.10412 7.62769 8.72119 7.62769H15.2794C15.8964 7.62769 16.3723 8.10356 16.3723 8.72063V15.2788Z" fill="#5187E7"/>
<path d="M15.006 8.72063H13.9125C13.8766 8.72055 13.841 8.72757 13.8078 8.74129C13.7746 8.755 13.7445 8.77513 13.7191 8.80053C13.6937 8.82593 13.6735 8.8561 13.6598 8.8893C13.6461 8.9225 13.6391 8.95808 13.6392 8.994V10.0869C13.6392 10.2383 13.7612 10.3603 13.9125 10.3603H15.0055C15.0414 10.3604 15.077 10.3534 15.1102 10.3397C15.1434 10.3259 15.1735 10.3058 15.1989 10.2804C15.2243 10.255 15.2445 10.2248 15.2582 10.1916C15.2719 10.1584 15.2789 10.1229 15.2788 10.0869V8.994C15.2788 8.9216 15.2501 8.85215 15.199 8.8009C15.1478 8.74964 15.0784 8.72078 15.006 8.72063V8.72063Z" fill="#5187E7"/>
</svg>
