<svg width="24" height="24" viewBox="0 0 24 24" fill="none" xmlns="http://www.w3.org/2000/svg">
<path d="M9.14209 11.8765H10.6888L9.9 10.1L9.14209 11.8765Z" fill="#16A254"/>
<path d="M12.0454 3.00019C2.40671 2.94945 -2.06234 13.1257 6.70334 17.6461C6.54924 18.1772 5.71345 21.0633 5.68019 21.2901C5.6564 21.4675 5.79134 21.616 6.0105 21.54C6.32692 21.4958 9.67913 19.141 10.2593 18.7322C24.1589 20.3958 26.896 3.63871 12.0454 3.00019ZM7.06587 13.1423C7.04692 13.8711 5.92545 13.8739 5.90566 13.1423V9.69597H5.0004C4.25071 9.67703 4.24924 8.57934 5.0004 8.55997H7.97092C8.72103 8.57976 8.72208 9.67597 7.97092 9.69597H7.06566V13.1423H7.06587ZM11.9414 13.6088C11.681 13.7461 11.1774 13.7128 11.0899 13.4326L10.8025 12.6806H9.03345L8.74608 13.433C8.65892 13.7126 8.15492 13.7463 7.89492 13.6088C7.73492 13.5351 7.58124 13.3322 7.75745 12.785L9.14502 9.13261C9.42902 8.38355 10.4057 8.38018 10.6913 9.13324L12.0785 12.784C12.2551 13.3322 12.1014 13.5351 11.9414 13.6088ZM14.8734 13.6115H13.0122C12.7057 13.6115 12.4562 13.373 12.4562 13.0798V9.13976C12.4762 8.37618 13.6202 8.37387 13.6406 9.13976V12.548H14.8734C15.6057 12.5661 15.6073 13.593 14.8734 13.6115ZM19.4147 13.1747C19.3631 13.672 18.6642 13.8553 18.3772 13.4438L17.0168 11.6412L16.8155 11.8425V13.1082C16.7964 13.8718 15.6751 13.8747 15.6551 13.1084V9.13976C15.6753 8.37555 16.7949 8.37408 16.8153 9.13976V10.3867L18.4339 8.76818C18.628 8.57134 18.9656 8.61366 19.1549 8.8105C19.3518 8.99766 19.3945 9.33913 19.1974 9.53155L17.8753 10.8534L19.3033 12.7452C19.3966 12.8675 19.4366 13.0225 19.4147 13.1747Z" fill="#16A254"/>
</svg>
