<svg width="134" height="38" viewBox="0 0 134 38" fill="none" xmlns="http://www.w3.org/2000/svg">
<rect y="25" width="134" height="10" fill="url(#paint0_linear_242:2)" fill-opacity="0.2"/>
<path d="M5.602 13.23H9.658V23.76H5.602V13.23ZM3.106 25.892H12.154V11.098H3.106V25.892ZM19.824 8.524V17.676H17.146V8.966H14.624V30.884H17.146V19.86H19.824V31.976H22.372V8.524H19.824ZM45.588 8.524H42.91V22.824H45.588V8.524ZM40.778 19.73C37.138 18.716 35.006 16.116 35.006 13.36V13.334H40.05V11.202H35.006V8.524H32.328V11.202H27.232V13.334H32.328V13.36C32.328 16.324 30.222 19.158 26.556 20.276L27.83 22.33C30.664 21.472 32.666 19.6 33.706 17.234C34.798 19.366 36.826 21.056 39.556 21.81L40.778 19.73ZM37.736 29.922C34.382 29.922 32.458 29.116 32.458 27.634C32.458 26.152 34.382 25.346 37.736 25.346C41.09 25.346 43.014 26.152 43.014 27.634C43.014 29.116 41.09 29.922 37.736 29.922ZM37.736 23.266C32.796 23.266 29.78 24.878 29.78 27.634C29.78 30.39 32.796 32.002 37.736 32.002C42.676 32.002 45.692 30.39 45.692 27.634C45.692 24.878 42.676 23.266 37.736 23.266ZM59.7198 14.218C59.7198 12.606 61.0978 11.566 63.0478 11.566C65.0238 11.566 66.3498 12.606 66.3498 14.218C66.3498 15.856 65.0238 16.896 63.0478 16.896C61.0978 16.896 59.7198 15.856 59.7198 14.218ZM70.3278 20.276C68.4558 20.562 66.4278 20.718 64.4258 20.848V18.82C67.0778 18.378 68.8458 16.61 68.8458 14.218C68.8458 11.436 66.4538 9.538 63.0478 9.538C59.6418 9.538 57.2238 11.436 57.2238 14.218C57.2238 16.636 59.0438 18.404 61.7478 18.82V20.952C59.6418 21.03 57.6398 21.03 55.9498 21.03L56.2878 23.214C60.2138 23.214 65.6738 23.136 70.5098 22.226L70.3278 20.276ZM61.8778 24.956H59.1998V31.534H75.1898V29.376H61.8778V24.956ZM74.3838 16.22V8.55H71.7058V26.49H74.3838V18.43H77.6078V16.22H74.3838ZM88.2658 22.98H93.0758V27.036H88.2658V22.98ZM95.7278 27.036V22.98H99.1858V20.822H85.1198V17.572H98.6658V10.162H82.4418V12.32H96.0138V15.44H82.4938V22.98H85.6138V27.036H79.9198V29.246H101.188V27.036H95.7278ZM123.978 18.482C120.858 19.002 118.18 19.106 113.656 19.106V16.558H121.56V14.452H113.656V12.034H122.236V9.876H111.004V21.238H112.954C117.998 21.238 120.884 21.16 124.238 20.614L123.978 18.482ZM116.282 25.736H126.396V29.584H116.282V25.736ZM113.656 31.716H129.022V23.604H113.656V31.716ZM126.344 8.524V22.512H129.022V8.524H126.344Z" fill="#191919"/>
<defs>
<linearGradient id="paint0_linear_242:2" x1="-2.96393e-07" y1="30" x2="134" y2="30" gradientUnits="userSpaceOnUse">
<stop stop-color="#2B6BDB"/>
<stop offset="0.508333" stop-color="#009843"/>
<stop offset="1" stop-color="#FD8F04"/>
</linearGradient>
</defs>
</svg>
