<svg width="300" height="300" viewBox="0 0 300 300" fill="none" xmlns="http://www.w3.org/2000/svg">
<g opacity="0.5">
<path d="M95.7958 32.7705C127.546 11.847 172.163 16.1119 200.231 47.169C215.577 64.1557 221.81 87.5214 237.74 104.144C255.674 122.843 277.108 141.033 285.237 166.549C293.876 193.67 286.294 224.763 266.974 245.504C243.463 270.729 208.906 263.147 176.245 262.746C42.503 261.069 -56.9016 171.798 69.5868 61.7498C80.1579 52.491 85.2976 39.6599 95.7958 32.7705Z" fill="#CCE9FF"/>
<path d="M261.215 113.293C260.522 113.512 256.877 116.209 256.877 116.209L252.576 118.979L252.394 117.412C252.394 117.412 250.644 113.913 248.493 114.058C248.493 114.058 251.081 117.23 251.409 119.344C251.737 121.458 251.883 122.916 251.883 122.916L249.04 125.723L253.779 131.811L264.897 123.5C264.897 123.5 261.907 113.074 261.215 113.293Z" fill="#DBA17B"/>
<path d="M263.439 113.292L261.507 128.785L253.779 128.967L251.92 113.292H263.439Z" fill="#FFBE55"/>
<path d="M265.116 113.511H250.535V111.98H251.92V109.574L263.767 111.324L263.803 112.199H265.116V113.694" fill="#0E538C"/>
<path d="M264.131 123.791C266.828 124.046 263.438 116.646 263.438 116.646C263.438 116.646 256.148 116.136 256.075 116.537C256.002 116.938 256.039 117.594 256.622 117.74C257.205 117.886 261.761 118.505 261.761 118.505C261.761 118.505 257.023 118.724 257.096 119.234C257.241 120 257.788 120.073 259.21 120.292C260.413 120.474 263.037 120.547 263.037 120.547C263.037 120.547 258.043 120.656 258.153 120.984C258.262 121.312 257.934 122.333 259.647 122.078C263.548 121.567 264.131 123.791 264.131 123.791Z" fill="#DBA17B"/>
<path d="M231.325 153.572C231.325 153.572 238.724 205.881 235.298 216.998C231.871 228.116 230.523 238.141 230.523 238.141L213.317 233.11C213.317 233.11 219.004 206.938 219.879 201.907C220.717 196.877 211.932 156.014 211.932 156.014L231.325 153.572Z" fill="#0B4870"/>
<path d="M223.196 157.327L215.067 241.422H198.627C198.627 241.422 203.949 152.406 203.001 151.64C202.053 150.948 223.196 157.327 223.196 157.327ZM229.684 106.075C229.684 106.075 231.434 134.289 235.188 133.268C238.979 132.284 249.113 124.921 249.113 124.921L255.273 131.701C255.273 131.701 236.501 152.588 228.773 144.058C221.081 135.492 229.684 106.075 229.684 106.075ZM224.617 255.492L225.747 249.805L213.755 244.994L211.859 253.451L212.515 253.56C215.213 254.799 228.299 260.85 230.34 261.033C232.6 261.251 224.617 255.492 224.617 255.492Z" fill="#0B4870"/>
<path d="M196.111 172.709L197.424 174.605C197.424 174.605 198.043 175.881 199.574 177.813C199.975 178.323 200.449 178.76 200.996 179.088C201.652 179.489 202.563 180 203.147 180.145C203.876 180.291 204.022 181.239 203.402 181.531C202.782 181.786 200.814 181.421 198.918 179.963C197.023 178.542 197.898 182.15 198.226 183.499C198.517 184.811 199.246 188.967 198.918 189.404C198.444 190.024 197.679 189.587 197.424 188.274C197.169 186.926 196.075 182.989 195.382 183.207C194.69 183.39 196.294 190.133 196.294 190.133C196.294 190.133 196.877 191.519 196.075 191.774C194.653 192.211 193.45 184.921 193.378 184.228C193.305 183.754 192.539 183.936 192.649 184.447C192.758 184.994 194.398 191.118 192.977 191.591C191.847 191.956 191.956 185.613 190.899 184.52C189.842 183.426 191.336 189.331 190.243 189.623C189.842 189.732 189.514 189.769 189.149 186.233C188.785 182.624 189.368 172.746 189.368 172.746L196.221 172.819" fill="#FFE3CA"/>
<path d="M219.915 96.5977C219.769 95.4677 220.353 90.7653 220.353 90.7653C220.353 90.7653 224.654 90.4373 225.055 86.2088C225.456 81.944 225.492 72.1019 225.492 72.1019L217.801 68.0193L208.979 74.2526L206.975 78.9184L209.599 90.0363V95.6135L219.915 96.5977Z" fill="#DBA17B"/>
<path d="M220.353 90.7657C220.353 90.7657 217.473 90.6928 214.775 88.688C214.775 88.688 215.942 91.8593 220.243 91.8228L220.353 90.7657Z" fill="#C68C6B"/>
<path d="M207.12 83.5844C208.287 86.1725 208.979 89.9635 208.979 89.9635C209.599 91.13 209.818 87.4119 209.818 87.4119C209.818 87.4119 210.364 83.8396 209.854 82.4544C209.854 82.4544 207.667 83.147 207.193 79.2466C206.938 77.3147 209.854 76.4034 210.656 78.7363L212.479 78.9186C212.479 78.9186 212.624 71.6282 216.816 72.9769C216.816 72.9769 219.842 74.8359 221.664 73.7059C223.487 72.5759 223.341 72.1749 223.341 72.1749C223.341 72.1749 224.216 74.1069 226.549 72.8311C228.882 71.5553 229.174 69.3317 228.372 68.2746C227.898 67.6549 227.46 66.9623 226.695 66.8165C225.929 66.6707 225.091 66.9988 224.617 67.582C225.2 66.7436 224.799 65.5042 223.924 64.921C223.086 64.3742 221.956 64.4107 221.008 64.7752C220.061 65.1397 219.259 65.7958 218.493 66.452C217.946 64.921 216.306 63.8274 214.702 63.9732C213.062 64.119 211.64 65.4313 211.349 67.0352C210.474 65.9416 208.797 65.6865 207.521 66.3062C206.245 66.9259 205.443 68.2381 205.188 69.6233C204.933 71.0085 205.225 72.4301 205.771 73.7424C204.787 73.1956 203.438 73.5966 202.782 74.5079C202.126 75.4192 202.126 76.695 202.6 77.7157C203.074 78.7363 203.985 79.5018 204.969 80.0121C204.24 80.5954 203.985 81.7618 204.459 82.6002C204.933 83.4386 206.027 83.876 206.901 83.548" fill="#0E538C"/>
<path d="M192.394 107.788C192.394 107.788 195.346 94.1918 209.599 95.6135C222.649 96.9257 222.649 96.9257 222.649 96.9257C222.649 96.9257 231.616 100.717 230.34 111.397C229.101 122.078 228.481 131.847 228.809 133.706C229.137 135.601 232.272 152.406 231.324 153.572C221.92 165.018 197.898 146.756 197.898 146.756L192.394 107.788Z" fill="#FFBE55"/>
<path d="M209.599 95.6134L206.282 175.042L196.403 169.684L197.424 99.2221C197.424 99.2221 200.085 94.6656 209.599 95.6134Z" fill="#0E538C"/>
<path d="M189.004 174.131L192.394 107.752C193.451 103.67 195.711 100.535 198.627 97.9103V175.006L189.004 174.131ZM219.915 96.598C219.915 96.598 228.81 101.009 228.409 115.918C227.971 130.826 233.767 172.965 233.767 172.965L241.203 171.47C241.203 171.47 232.601 131.519 232.236 124.52C231.871 117.376 232.491 107.278 227.679 100.316C224.217 95.3222 219.915 96.598 219.915 96.598Z" fill="#0E538C"/>
<path d="M209.599 95.6135C209.599 95.6135 206.683 102.175 206.974 104.544C207.266 106.95 208.287 111.98 208.287 111.98C208.287 111.98 206.136 113.293 206.318 114.423C206.464 115.553 208.177 133.414 208.177 133.414L209.599 95.6135ZM198.627 175.042C199.538 159.004 199.32 127.874 200.231 111.798L198.627 175.042Z" fill="#0B4870"/>
<path d="M224.69 249.405C224.544 249.332 227.716 237.339 227.716 237.339L217.181 234.277L214.958 245.505L224.69 249.405Z" fill="#DBA17B"/>
<path d="M212.406 241.458H200.413V250.863H212.406V241.458Z" fill="#DBA17B"/>
<path d="M213.572 255.966L212.479 250.28H199.538L200.887 258.663L201.579 258.7C204.532 258.846 218.931 259.611 220.899 259.028C223.159 258.335 213.572 255.966 213.572 255.966Z" fill="#0B4870"/>
<path d="M112.236 71.446C113.257 74.8725 114.277 78.299 115.298 81.7255C115.444 82.1994 115.589 82.6733 115.553 83.1471C115.517 84.6052 114.168 85.7352 112.746 85.9904C111.325 86.2455 109.866 85.881 108.481 85.48C108.117 86.9381 106.367 87.5578 104.873 87.8494C98.2383 89.0888 91.203 88.2139 85.0791 85.3707C87.7036 81.5797 89.8543 77.4971 91.4582 73.1593C96.6708 73.378 101.883 73.6332 107.096 73.8519C108.007 73.8883 108.955 73.9248 109.83 73.6332C110.705 73.3051 111.47 72.5761 111.543 71.6648" fill="#0E538C"/>
<path d="M51.7254 116.537L50.1944 114.751C50.1944 114.751 49.1009 113.84 47.5334 111.798C47.1325 111.288 46.8408 110.668 46.6221 110.049C46.367 109.283 46.0754 108.262 46.1118 107.643C46.1483 106.877 45.237 106.513 44.7995 107.06C44.3621 107.606 44.2892 109.684 45.237 111.908C46.1847 114.131 42.7947 112.382 41.5553 111.725C40.3159 111.106 36.3791 109.356 35.8688 109.575C35.1398 109.903 35.3585 110.741 36.6343 111.361C37.9101 111.981 41.5189 114.022 41.1908 114.642C40.8263 115.261 34.5565 112.017 34.5565 112.017C34.5565 112.017 33.3172 111.106 32.8797 111.835C32.0778 113.147 39.0401 116.136 39.6963 116.391C40.1701 116.574 39.8056 117.303 39.2953 117.047C38.785 116.829 33.0985 113.657 32.2601 114.97C31.6404 115.99 37.9466 117.485 38.7485 118.797C39.5505 120.109 34.0827 117.193 33.4994 118.177C33.2807 118.542 33.1714 118.87 36.5978 120.073C40.0608 121.312 50.0486 123.208 50.0486 123.208L51.6525 116.355" fill="#FF957E"/>
<path d="M79.9025 100.352C79.9025 100.352 74.216 116.792 72.4663 116.938C60.4736 118.032 47.4237 112.855 47.4237 112.855L44.1431 122.114C44.1431 122.114 78.1163 137.315 85.4067 122.661C93.171 107.132 92.77 104.69 92.77 104.69L79.9025 100.352Z" fill="#FCD2B1"/>
<path d="M80.6685 193.305C86.7559 221.264 126.78 247.254 126.78 247.254L133.597 238.906C133.597 238.906 101.41 210.219 100.061 197.46C98.6757 184.702 109.356 164.69 109.356 164.69L98.2748 159.988L80.6685 193.305Z" fill="#0B4870"/>
<path d="M94.1921 91.4947C94.3744 90.3282 93.937 85.5166 93.937 85.5166C93.937 85.5166 89.5263 85.0427 89.2711 80.6685C89.016 76.2942 89.2711 66.2334 89.2711 66.2334L97.2906 62.2966L106.112 68.9674L104.763 90.8021L94.1921 91.4947Z" fill="#FFE3CA"/>
<path d="M105.492 72.3935C105.492 72.3935 98.2743 71.7009 97.0349 65.176L89.2342 72.3935C89.2342 72.3935 86.8648 67.5453 91.2026 63.0617C95.5404 58.5782 98.493 59.4895 100.206 59.4895C101.774 59.4895 109.793 61.2027 112.163 70.2792C112.345 70.9354 112.491 72.5757 112.6 73.3048L105.492 72.3935Z" fill="#0E538C"/>
<path d="M93.9736 85.5531C93.9736 85.5531 96.9263 85.5895 99.7695 83.5847C99.7695 83.5847 98.4572 86.7924 94.083 86.6102L93.9736 85.5531Z" fill="#FCD2B1"/>
<path d="M84.8966 140.741C84.8966 142.309 85.4434 144.459 85.4434 144.459L116.428 153.39C116.428 153.39 118.651 139.392 113.001 131.592C110.413 128.019 110.996 122.989 112.053 118.688L115.699 103.997L110.814 90.1821L91.3121 91.4944C91.3121 91.4944 80.012 90.3644 76.0752 105.31L83.3291 116.209L83.4021 120.328L84.8966 140.741Z" fill="#FFBE55"/>
<path d="M115.115 135.273C115.443 135.273 121.057 147.849 115.99 155.322C115.516 156.014 114.35 157.728 112.782 160.17C105.273 171.689 88.1408 198.773 87.5575 202.746C86.8649 207.558 73.0132 258.044 73.0132 258.044L62.6973 256.403L71.1177 199.137L84.8965 140.741L115.115 135.273ZM97.2173 64.6657C97.2173 64.6657 95.6134 67.7642 96.306 70.0971L89.3072 71.9197C89.3072 71.8832 87.7033 63.0254 97.2173 64.6657ZM112.236 72.6487C112.236 72.6487 113.037 82.7095 105.273 84.4956L105.784 72.3571L112.236 72.6487Z" fill="#0E538C"/>
<path d="M80.4496 119.526L63.062 126.853L34.593 127.473L20.7412 103.961L50.0122 101.993L62.6975 124.739L80.3402 117.886L80.4496 119.526Z" fill="#FFBE55"/>
<path d="M77.3152 102.248L72.4307 114.168L83.3663 119.599L84.3869 109.174L77.3152 102.248Z" fill="#FFBE55"/>
<path d="M98.3839 89.3074L94.4106 91.0206L95.2126 99.0401L100.243 90.0364L98.3839 89.3074Z" fill="#FFE3CA"/>
<path d="M61.7498 256.404C61.7498 256.404 52.6732 258.81 54.9333 259.502C57.1933 260.195 72.9041 258.482 72.9041 258.482L73.4144 256.695L61.7498 256.404Z" fill="#0E538C"/>
<path d="M72.9038 258.481L76.1116 249.842H62.1869L61.7495 256.404L72.9038 258.481Z" fill="#0E538C"/>
<path d="M126.89 247.837C126.89 247.837 124.593 256.95 126.306 255.31C127.983 253.67 134.18 239.125 134.18 239.125L132.868 237.813L126.89 247.837Z" fill="#0B4870"/>
<path d="M134.143 239.125L128.129 232.126L121.385 244.265L126.89 247.837L134.143 239.125Z" fill="#0B4870"/>
<path d="M106.622 77.8977C106.586 77.1687 106.586 76.4032 106.841 75.7471C107.096 75.0545 107.679 74.4713 108.408 74.3983C109.247 74.3254 110.049 75.018 110.195 75.82C110.34 76.6584 109.83 77.4968 109.101 77.9342C108.372 78.3352 107.461 78.3352 106.659 78.0071" fill="#FFE3CA"/>
<path d="M101.665 141.324C101.665 141.324 101.264 100.972 102.686 97.91C102.686 97.91 104.18 90.3279 109.976 90.1821L107.388 90.4008C107.388 90.4008 102.139 90.0363 100.608 100.352C99.1133 110.668 99.1862 141.652 99.1862 141.652L101.665 141.324ZM90.4377 142.746C90.4377 142.746 88.8703 96.379 90.1097 91.4944H88.5422C88.5422 91.4944 87.1571 95.4677 87.4122 106.586C87.5945 113.256 87.4122 142.746 87.4122 142.746H90.4377Z" fill="#0E538C"/>
<path d="M71.9559 122.187C71.9559 122.187 64.3739 126.999 62.6971 126.962C61.0568 126.926 56.2815 126.817 56.7919 127.473C57.3022 128.129 62.6971 129.04 62.6971 129.04L71.9559 122.187Z" fill="#FFE3CA"/>
<path d="M72.5032 132.321C72.5032 132.321 108.408 141.981 113.329 126.379C118.542 109.83 118.615 114.131 118.615 114.131L107.351 103.269C107.351 103.269 101.3 122.369 99.587 122.807C90.1459 125.213 79.4291 123.682 75.638 122.989C75.2006 122.625 74.7267 122.224 74.1435 121.677C73.6696 121.239 73.2687 120.693 72.977 120.109C72.6125 119.38 72.1751 118.433 72.1022 117.813C71.9928 117.047 71.0451 116.829 70.717 117.412C70.389 117.995 70.6077 120.073 71.9199 122.114C71.9199 122.114 63.3537 127.619 62.6611 128.931L72.5032 132.321Z" fill="#FFE3CA"/>
<path d="M110.814 90.1821C110.814 90.1821 119.016 91.7496 119.344 104.654C119.672 117.558 114.459 127.436 114.459 127.436L100.535 120.182L110.814 90.1821Z" fill="#FFBE55"/>
<path d="M182.333 217.545H144.714C142.965 217.545 141.543 216.124 141.543 214.374C141.543 212.624 142.965 211.203 144.714 211.203H182.296C184.046 211.203 185.468 212.624 185.468 214.374C185.504 216.124 184.083 217.545 182.333 217.545Z" fill="#D3D3D3"/>
<path d="M155.733 254.408V257.616H188.103V254.408H155.733Z" fill="#0B4870"/>
<path d="M158.712 256.986C159.003 258.663 157.873 260.231 156.197 260.486C154.52 260.777 152.952 259.647 152.697 257.971C152.406 256.294 153.536 254.726 155.212 254.471C156.889 254.18 158.457 255.31 158.712 256.986Z" fill="#0B4870"/>
<path d="M173.366 215.468H170.158V255.711H173.366V215.468Z" fill="#0B4870"/>
<path d="M191.081 256.986C191.373 258.663 190.243 260.231 188.566 260.486C186.889 260.777 185.322 259.647 185.067 257.971C184.775 256.294 185.905 254.726 187.582 254.471C189.259 254.18 190.826 255.31 191.081 256.986Z" fill="#0B4870"/>
<path d="M192.175 217.546H156.67C154.265 217.546 152.515 215.176 153.208 212.807L170.158 154.338C170.595 152.77 172.017 151.677 173.621 151.677H209.125C211.531 151.677 213.28 154.046 212.588 156.416L195.638 214.885C195.2 216.488 193.779 217.546 192.175 217.546Z" fill="#D3D3D3"/>
<path d="M187.291 217.546H156.343C153.937 217.546 152.187 215.176 152.88 212.807L169.83 154.338C170.268 152.77 171.689 151.677 173.293 151.677H204.241C206.647 151.677 208.396 154.046 207.704 156.416L190.754 214.885C190.316 216.488 188.894 217.546 187.291 217.546Z" fill="#F2F2F2"/>
<path d="M192.175 217.545H154.557C152.807 217.545 151.385 216.124 151.385 214.374C151.385 212.624 152.807 211.203 154.557 211.203H192.139C193.888 211.203 195.31 212.624 195.31 214.374C195.346 216.124 193.925 217.545 192.175 217.545Z" fill="#D3D3D3"/>
<path d="M161.081 167.898L152.734 190.097L154.702 194.435L165.966 192.467L169.174 168.736L161.081 167.898Z" fill="#FCD2B1"/>
<path d="M166.148 157.108C166.148 157.108 159.55 160.571 158.092 171.944L166.804 176.719L166.148 157.108Z" fill="#2A94F4"/>
<path d="M176.792 152.77L166.403 157.145L158.202 193.633L185.614 204.423L200.231 162.795C200.231 162.795 197.861 154.119 184.155 151.896L176.792 152.77Z" fill="#2A94F4"/>
<path d="M204.496 195.601C204.496 195.127 204.204 192.248 204.058 191.774L199.538 162.867C198.663 158.894 194.216 156.889 190.68 158.858C188.056 160.316 186.889 163.414 187.91 166.221L193.268 191.045L204.496 195.601Z" fill="#FFE3CA"/>
<path d="M198.335 189.441L167.752 187.072L166.221 192.466L195.674 202.418C200.194 203.949 204.824 200.377 204.496 195.601C204.277 192.321 201.653 189.696 198.335 189.441Z" fill="#FFE3CA"/>
<path d="M196.476 157.983C196.476 157.983 200.376 159.66 202.053 169.794L188.274 174.022C188.274 174.022 179.271 163.925 188.894 157.181L196.476 157.983Z" fill="#2A94F4"/>
<path d="M158.166 192.795C159.296 195.784 164.946 195.929 167.971 194.799C170.96 193.669 174.059 191.956 172.929 188.931C171.799 185.942 166.805 184.156 163.524 184.885C159.551 185.796 157.036 189.769 158.166 192.795Z" fill="#FFE3CA"/>
<path d="M174.824 196.877L152.989 194.071L153.317 191.592L175.152 194.399C175.844 194.472 176.318 195.091 176.209 195.784C176.099 196.476 175.48 196.95 174.824 196.877Z" fill="#F2F2F2"/>
<path d="M155.869 194.435L126.926 190.717C125.249 190.498 123.937 189.222 123.718 187.545L120.693 166.549C120.438 164.69 122.005 163.086 123.864 163.341L150.438 166.768C151.568 166.914 152.443 167.788 152.588 168.882L155.869 194.435Z" fill="#F2F2F2"/>
<path d="M121.276 249.878L113.767 252.977L109.028 253.341C106.841 253.487 105.018 255.091 104.581 257.205L104.362 258.189L130.097 261.397L130.608 251.045L121.276 249.878Z" fill="#0B4870"/>
<path d="M130.608 251.045L133.123 239.781L123.828 238.505L121.276 249.878L130.608 251.045Z" fill="#FFE3CA"/>
<path d="M185.614 204.423C185.614 204.423 184.885 210.656 173.694 211.495H146.792L134.107 246.89L120.766 244.739L134.107 192.758L164.69 196.148L185.614 204.423Z" fill="#0B4870"/>
<path d="M99.7324 229.538L91.6765 228.335L87.4116 226.185C85.4432 225.201 83.0738 225.638 81.5793 227.205L80.8867 227.934L101.3 243.9L107.059 235.298L99.7324 229.538Z" fill="#0E538C"/>
<path d="M107.132 235.334L114.131 226.44L106.768 220.571L99.7324 229.538L107.132 235.334Z" fill="#FFE3CA"/>
<path d="M158.202 193.633L137.46 187.436C136.586 187.181 135.747 186.853 134.872 186.561C133.086 185.869 128.566 184.921 125.067 190.279C120.583 197.169 102.612 223.05 102.612 223.05L113.584 231.142L137.533 200.632C139.538 197.861 142.746 196.221 146.172 196.221L164.69 196.185L158.202 193.633Z" fill="#0E538C"/>
<path d="M184.885 141.397C185.249 140.705 191.665 129.259 185.796 126.379C185.796 126.379 185.03 120.328 178.287 120.984C171.543 121.64 173.366 123.609 169.064 122.624C164.763 121.64 160.717 123.864 161.045 127.473C161.373 131.081 164.107 132.612 169.064 131.737C174.022 130.863 177.959 131.519 177.959 131.519L182.114 132.722L184.885 141.397Z" fill="#FFBE55"/>
<path d="M185.686 153.791L185.176 139.247L175.115 142.819L175.917 154.484C176.099 157.181 177.594 159.295 180.291 159.113L181.13 159.076C183.827 158.821 185.869 156.488 185.686 153.791Z" fill="#FFE3CA"/>
<path d="M184.302 141.252C184.302 141.252 186.197 153.39 175.845 154.083L175.371 148.323L184.302 141.252Z" fill="#FCD2B1"/>
<path d="M175.772 151.385H176.137C181.313 151.13 185.286 146.756 185.031 141.58L184.52 131.009C184.448 129.66 183.318 128.639 181.969 128.712L169.648 129.295C167.279 129.405 165.42 131.446 165.529 133.815L165.93 142.455C166.222 147.631 170.596 151.604 175.772 151.385Z" fill="#FFE3CA"/>
<path d="M182.661 138.408C182.734 140.158 184.228 141.507 185.978 141.397C187.728 141.324 189.077 139.83 188.967 138.08C188.894 136.331 187.4 134.982 185.65 135.091C183.937 135.164 182.588 136.659 182.661 138.408Z" fill="#FFE3CA"/>
<path d="M181.167 129.951L181.786 141.725C181.859 142.782 181.422 143.876 180.511 144.459C179.964 144.86 179.526 145.371 178.542 145.225C175.735 144.824 177.048 142.746 171.325 143.038C166.112 143.329 166.513 146.209 166.513 146.209C166.513 146.209 167.534 151.713 174.678 151.968C181.823 152.224 185.395 147.704 184.557 141.689L183.864 129.259L181.167 129.951Z" fill="#FFBE55"/>
<path d="M165.894 131.956C165.894 131.956 169.211 132.467 174.059 131.3C178.87 130.097 182.698 133.998 182.698 133.998C182.698 133.998 183.719 135.784 183.974 135.747C184.229 135.711 185.687 135.128 185.687 135.128L185.614 129.696L182.078 126.926L172.273 126.525L166.477 127.801L165.894 131.956Z" fill="#FFBE55"/>
</g>
</svg>
