<svg width="24" height="24" viewBox="0 0 24 24" fill="none" xmlns="http://www.w3.org/2000/svg">
<path d="M5.63571 18.3638C9.15072 21.8787 14.8487 21.8787 18.3637 18.3638C21.8788 14.8489 21.8788 9.15107 18.3637 5.63617C14.8487 2.12128 9.15072 2.12128 5.63571 5.63617C2.12143 9.15107 2.12143 14.8489 5.63571 18.3638ZM9.62807 6.40294L10.9673 7.74209C11.2351 8.00992 11.292 8.4239 11.1062 8.75437L10.6029 9.64785C10.5425 9.75498 10.5189 9.87897 10.5356 10.0008C10.5524 10.1227 10.6087 10.2357 10.6958 10.3225L13.6773 13.3039C13.7642 13.3909 13.8772 13.447 13.9991 13.4637C14.1209 13.4803 14.2449 13.4565 14.3519 13.396L15.2455 12.8928C15.4062 12.8022 15.5922 12.7667 15.775 12.7918C15.9578 12.8169 16.1274 12.9012 16.2578 13.0317L17.5977 14.3716C17.756 14.5302 17.8448 14.7451 17.8448 14.9692C17.8448 15.1932 17.756 15.4081 17.5977 15.5667L16.9634 16.201C16.6115 16.5521 16.1536 16.7771 15.6607 16.8413C15.1678 16.9055 14.6675 16.8052 14.2375 16.556L14.177 16.5214C11.5484 15.0195 9.34976 12.8673 7.79209 10.2713L7.48753 9.76305C7.22867 9.33235 7.12128 8.82745 7.18247 8.32869C7.24366 7.82993 7.46991 7.36595 7.82521 7.0106L8.43289 6.40294C8.51132 6.3244 8.60448 6.26209 8.70702 6.21958C8.80956 6.17706 8.91948 6.15518 9.03048 6.15518C9.14148 6.15518 9.2514 6.17706 9.35394 6.21958C9.45648 6.26209 9.54963 6.3244 9.62807 6.40294V6.40294Z" fill="#5187E7"/>
</svg>
