<svg width="24" height="24" viewBox="0 0 24 24" fill="none" xmlns="http://www.w3.org/2000/svg">
<path d="M15.125 7.625H8.875C8.54348 7.625 8.22554 7.7567 7.99112 7.99112C7.7567 8.22554 7.625 8.54348 7.625 8.875V15.125C7.625 15.4565 7.7567 15.7745 7.99112 16.0089C8.22554 16.2433 8.54348 16.375 8.875 16.375H15.125C15.4565 16.375 15.7745 16.2433 16.0089 16.0089C16.2433 15.7745 16.375 15.4565 16.375 15.125V8.875C16.375 8.54348 16.2433 8.22554 16.0089 7.99112C15.7745 7.7567 15.4565 7.625 15.125 7.625ZM12 14.5C11.5055 14.5 11.0222 14.3534 10.6111 14.0787C10.2 13.804 9.87952 13.4135 9.6903 12.9567C9.50108 12.4999 9.45157 11.9972 9.54804 11.5123C9.6445 11.0273 9.8826 10.5819 10.2322 10.2322C10.5819 9.8826 11.0273 9.6445 11.5123 9.54804C11.9972 9.45157 12.4999 9.50108 12.9567 9.6903C13.4135 9.87952 13.804 10.2 14.0787 10.6111C14.3534 11.0222 14.5 11.5055 14.5 12C14.5 12.663 14.2366 13.2989 13.7678 13.7678C13.2989 14.2366 12.663 14.5 12 14.5ZM14.8125 9.96875C14.658 9.96875 14.5069 9.92293 14.3785 9.83709C14.25 9.75124 14.1498 9.62923 14.0907 9.48647C14.0316 9.34372 14.0161 9.18663 14.0463 9.03509C14.0764 8.88354 14.1508 8.74433 14.2601 8.63507C14.3693 8.52581 14.5085 8.45141 14.6601 8.42126C14.8116 8.39112 14.9687 8.40659 15.1115 8.46572C15.2542 8.52485 15.3762 8.62498 15.4621 8.75346C15.5479 8.88194 15.5937 9.03298 15.5937 9.1875C15.5937 9.3947 15.5114 9.59341 15.3649 9.73993C15.2184 9.88644 15.0197 9.96875 14.8125 9.96875Z" fill="#16A254"/>
<path d="M12 13.25C12.6904 13.25 13.25 12.6904 13.25 12C13.25 11.3096 12.6904 10.75 12 10.75C11.3096 10.75 10.75 11.3096 10.75 12C10.75 12.6904 11.3096 13.25 12 13.25Z" fill="#16A254"/>
<path d="M12 2C10.0222 2 8.08879 2.58649 6.4443 3.6853C4.79981 4.78412 3.51809 6.3459 2.76121 8.17316C2.00433 10.0004 1.8063 12.0111 2.19215 13.9509C2.578 15.8907 3.53041 17.6725 4.92894 19.0711C6.32746 20.4696 8.10929 21.422 10.0491 21.8078C11.9889 22.1937 13.9996 21.9957 15.8268 21.2388C17.6541 20.4819 19.2159 19.2002 20.3147 17.5557C21.4135 15.9112 22 13.9778 22 12C22 9.34783 20.9464 6.8043 19.0711 4.92893C17.1957 3.05357 14.6522 2 12 2V2ZM17.625 15.125C17.625 15.788 17.3616 16.4239 16.8928 16.8928C16.4239 17.3616 15.788 17.625 15.125 17.625H8.875C8.21196 17.625 7.57608 17.3616 7.10724 16.8928C6.6384 16.4239 6.375 15.788 6.375 15.125V8.875C6.375 8.21196 6.6384 7.57607 7.10724 7.10723C7.57608 6.63839 8.21196 6.375 8.875 6.375H15.125C15.788 6.375 16.4239 6.63839 16.8928 7.10723C17.3616 7.57607 17.625 8.21196 17.625 8.875V15.125Z" fill="#16A254"/>
</svg>
